<svg width="48" height="48" viewBox="0 0 48 48" fill="none" xmlns="http://www.w3.org/2000/svg">
<rect x="1" y="1" width="46" height="46" rx="9" fill="#A60F2D" fill-opacity="0.06"/>
<rect x="1" y="1" width="46" height="46" rx="9" stroke="url(#paint0_linear_0_5193)" stroke-width="2"/>
<path d="M32 24.5V18.8C32 17.1198 32 16.2798 31.673 15.638C31.3854 15.0735 30.9265 14.6146 30.362 14.327C29.7202 14 28.8802 14 27.2 14H20.8C19.1198 14 18.2798 14 17.638 14.327C17.0735 14.6146 16.6146 15.0735 16.327 15.638C16 16.2798 16 17.1198 16 18.8V29.2C16 30.8802 16 31.7202 16.327 32.362C16.6146 32.9265 17.0735 33.3854 17.638 33.673C18.2798 34 19.1198 34 20.8 34H24M26 23H20M22 27H20M28 19H20M26.5 31L28.5 33L33 28.5" stroke="#A60F2D" stroke-width="2" stroke-linecap="round" stroke-linejoin="round"/>
<defs>
<linearGradient id="paint0_linear_0_5193" x1="24" y1="0" x2="24" y2="48" gradientUnits="userSpaceOnUse">
<stop stop-color="white" stop-opacity="0.12"/>
<stop offset="1" stop-color="white" stop-opacity="0"/>
</linearGradient>
</defs>
</svg>
